<svg width="781" height="532" viewBox="0 0 781 532" fill="none" xmlns="http://www.w3.org/2000/svg">
<path d="M322.024 482.905C338.769 519.699 362.391 534.985 392.89 528.763C399.476 527.394 405.795 524.432 411.845 519.877C417.583 515.531 423.187 510.47 428.657 504.695C430.354 502.879 430.164 501.555 428.088 500.721C424.337 499.233 420.966 498.935 417.974 499.828C415.92 500.453 413.285 502.82 410.07 506.928C390.355 531.993 370.027 531.293 349.084 504.829" stroke="#8090A8" stroke-width="2"/>
<path d="M349.084 504.829L349.251 492.594C349.274 491.248 349.597 489.845 350.189 488.531C352.243 484.215 351.082 480.776 346.706 478.216" stroke="#8090A8" stroke-width="2"/>
<path d="M346.706 478.216C336.123 468.363 329.704 461.978 327.449 459.06C324.904 455.756 322.626 456.441 320.617 461.114" stroke="#8090A8" stroke-width="2"/>
<path d="M320.617 461.114C266.34 457.036 213.481 443.387 162.04 420.168C128.973 405.254 98.2626 384.252 69.9073 357.163C47.8036 335.997 32.1301 310.709 22.8867 281.298C12.4376 248.046 14.7485 215.093 29.8192 182.437C41.273 157.58 54.0328 138.618 68.0988 125.549C108.354 88.16 153.421 61.8298 203.3 46.5586C220.849 41.1705 242.796 35.7973 269.142 30.439C302.566 23.6815 336.235 20.1242 370.15 19.767C402.68 19.4395 440.636 22.6099 484.017 29.278C553.811 39.9947 618.113 65.2681 676.922 105.098C700.902 121.352 721.811 142.845 739.65 169.577C753.671 190.564 761.363 214.066 762.725 240.083C763.864 261.725 759.934 283.263 750.936 304.696C742.296 325.177 730.842 342.308 716.575 356.091C686.925 384.669 654.205 406.772 618.414 422.4C600.24 430.349 578.65 437.925 553.644 445.129C522.118 454.178 488.862 460.311 453.876 463.526C450.906 463.793 448.908 463.049 447.881 461.293" stroke="#6EAECE" stroke-width="2"/>
<path d="M447.881 461.293C446.586 454.595 447.2 449.534 449.723 446.111C451.375 443.908 454.523 442.598 459.167 442.182C515.208 437.121 568.815 419.156 619.989 388.286C643.856 373.908 665.77 355.421 685.73 332.827C695.554 321.694 703.793 308.834 710.446 294.247C711.161 292.699 712.188 289.246 713.527 283.888C714.421 280.286 715.849 276.996 717.814 274.02C718.417 273.126 718.663 272.352 718.551 271.698C718.508 271.491 718.414 271.313 718.278 271.179C718.142 271.044 717.966 270.956 717.765 270.921C717.564 270.887 717.344 270.907 717.12 270.979C716.896 271.052 716.675 271.176 716.475 271.34C675.84 304.651 632.38 329.151 586.096 344.839C550.998 356.716 522.833 364.278 501.6 367.522C497.291 368.177 494.678 370.514 493.763 374.533C493.419 376.054 492.797 377.266 492.021 377.926C485.39 383.642 479.105 389.923 473.166 396.77C465.776 405.313 459.502 411.49 454.345 415.301C440.502 425.601 425.878 434.888 410.472 443.164C410.28 443.27 410.108 443.43 409.968 443.635C409.829 443.84 409.725 444.083 409.664 444.348C409.603 444.613 409.587 444.892 409.617 445.166C409.646 445.44 409.721 445.702 409.836 445.932C417.427 460.906 424.918 474.867 432.308 487.817C435.188 492.818 437.845 492.014 440.279 485.405" stroke="#7A859D" stroke-width="2"/>
<path d="M440.279 485.405C507.751 481.863 572.89 464.701 635.696 433.921C644.135 429.783 653.647 423.918 664.23 416.328C673.518 409.689 682.861 403.289 692.261 397.127" stroke="#6EAECE" stroke-width="2"/>
<path d="M692.261 397.127C705.434 391.054 719.12 379.98 733.32 363.905C749.887 345.122 762.256 323.837 770.428 300.052C779.336 274.243 782.027 248.627 778.499 223.205C774.748 195.967 764.411 172.256 747.487 152.073" stroke="#6EAECE" stroke-width="2"/>
<path d="M747.487 152.073C738.802 138.677 729.748 127.425 720.326 118.315C688.22 87.2372 652.519 63.348 613.223 46.6479C549.234 19.4098 483.839 4.43625 417.036 1.72732C394.531 0.804493 372.204 0.759829 350.055 1.59335C312.657 3.02223 275.517 8.38057 238.632 17.6683C197.461 28.0277 157.686 44.4004 119.306 66.7863C94.0093 81.5812 70.6776 100.648 49.3107 123.986C31.9403 142.979 18.946 164.71 10.3278 189.179C-3.69359 229.069 -1.90743 268.274 15.6862 306.794C29.2164 336.444 46.7989 360.928 68.4337 380.248C90.7161 400.163 114.372 416.521 139.4 429.321C197.919 459.298 258.794 477.159 322.024 482.905" stroke="#6EAECE" stroke-width="2"/>
<path d="M747.487 152.073C760.615 176.453 769.613 202.873 774.48 231.332C775.753 238.774 775.931 246.097 775.016 253.301C773.319 266.518 772.426 273.588 772.337 274.511C770.841 289.722 766.342 304.071 758.84 317.556C740.219 351.045 718.026 377.569 692.261 397.127" stroke="#329DD2" stroke-width="2"/>
<path d="M440.279 485.405L442.924 464.865C442.987 464.41 443.199 463.955 443.536 463.552C443.874 463.15 444.323 462.815 444.833 462.588L447.881 461.293" stroke="#165D8F" stroke-width="2"/>
<path d="M320.617 461.114L322.024 482.905" stroke="#1C689B" stroke-width="2"/>
<path d="M346.706 478.216C341.392 487.921 342.185 496.792 349.084 504.829" stroke="#8090A8" stroke-width="2"/>
<path d="M374.269 103.089C364.088 95.617 353.226 93.8012 341.683 97.6413C337.909 98.9213 335.074 101.809 333.176 106.304C328.085 118.33 324.748 131.488 323.162 145.777C321.912 157.059 325.574 162.73 334.147 162.79C343.1 162.849 352.053 162.254 361.007 161.003C362.617 160.768 364.16 160.01 365.502 158.796C366.845 157.582 367.946 155.949 368.709 154.038C373.554 141.862 376.814 128.69 378.489 114.52C379.091 109.4 377.685 105.589 374.269 103.089Z" stroke="#C88D8E" stroke-width="2"/>
<path d="M429.126 103.893C418.298 96.5696 406.777 95.2301 394.564 99.8739C393.101 100.435 391.744 101.397 390.584 102.697C389.424 103.998 388.486 105.607 387.832 107.42C382.586 121.888 379.17 137.07 377.584 152.966C377.385 154.999 377.772 157.056 378.667 158.723C379.563 160.389 380.899 161.54 382.407 161.941C393.504 164.829 404.544 165.305 415.529 163.37C420.91 162.417 424.248 158.979 425.543 153.055L433.614 116.083C434.775 110.784 433.279 106.721 429.126 103.893Z" stroke="#C88D8E" stroke-width="2"/>
<path d="M464.76 166.407C475.098 166.972 481.483 160.855 483.917 148.054C485.301 140.761 486.73 130.937 488.204 118.583C489.164 110.486 487.21 105.337 482.343 103.134" stroke="#C88D8E" stroke-width="2"/>
<path d="M482.343 103.134C470.331 99.1149 461.4 97.939 455.55 99.6061C448.674 101.571 444.141 105.947 441.953 112.734C438.202 124.314 435.367 137.099 433.447 151.091C432.509 157.967 434.574 162.313 439.642 164.129C447.01 166.749 455.383 167.508 464.76 166.407" stroke="#C88D8E" stroke-width="2"/>
<path d="M482.343 103.134C481.048 112.779 479.753 122.409 478.458 132.024C477.52 138.811 475.79 144.854 473.267 150.153C470.588 155.69 467.752 161.108 464.76 166.407" stroke="#D06D6B" stroke-width="2"/>
<path d="M215.256 286.969C224.455 286.403 230.561 281.328 233.575 271.742C235.897 264.36 237.371 257.007 237.996 249.684C238.867 239.86 235.194 232.686 226.978 228.161" stroke="#CEA0A1" stroke-width="2"/>
<path d="M226.978 228.161L209.395 224.634C208.694 224.496 208.058 224.302 207.54 224.07C207.023 223.837 206.637 223.571 206.415 223.294C204.807 221.359 204.104 218.918 204.305 215.971C204.344 215.293 204.561 214.658 204.913 214.189C205.265 213.72 205.728 213.448 206.214 213.426L235.149 211.908C235.771 211.879 236.351 211.745 236.853 211.515C237.354 211.284 237.766 210.962 238.063 210.568C240.832 206.936 242.841 202.114 244.091 196.101C244.153 195.8 244.163 195.485 244.122 195.179C244.08 194.874 243.989 194.585 243.853 194.335C243.718 194.086 243.542 193.882 243.34 193.739C243.137 193.596 242.913 193.518 242.685 193.511L179.522 190.876C179.323 190.861 179.125 190.911 178.944 191.023C178.764 191.135 178.607 191.304 178.487 191.516C178.368 191.729 178.29 191.977 178.26 192.239C178.23 192.501 178.249 192.77 178.316 193.019C179.142 196.175 179.22 199.286 178.55 202.352C172.678 229.382 166.204 256.218 159.126 282.861C159.011 283.288 158.97 283.745 159.007 284.196C159.044 284.647 159.158 285.08 159.34 285.461C159.521 285.841 159.766 286.159 160.054 286.39C160.342 286.62 160.667 286.757 161.001 286.79C180.158 288.933 198.243 288.993 215.256 286.969" stroke="#CA8A8E" stroke-width="2"/>
<path d="M226.978 228.161C229.568 235.246 230.383 242.346 229.423 249.461C228.462 256.516 227.268 263.184 225.839 269.465C224.142 276.877 220.615 282.712 215.256 286.969" stroke="#C65454" stroke-width="2"/>
<path d="M292.753 270.492C289.27 271.445 285.809 271.385 282.371 270.313C277.571 268.884 274.757 266.414 273.931 262.901C273.172 259.716 274.233 256.501 277.113 253.256C280.73 249.208 284.972 246.811 289.839 246.067C292.987 245.591 295.109 244.98 296.203 244.236C299.641 241.884 300.277 238.625 298.111 234.457C297.841 233.929 297.458 233.489 296.993 233.172C296.528 232.854 295.994 232.667 295.432 232.626C291.034 232.21 287.819 230.945 285.787 228.831C282.617 225.467 282.204 221.746 284.548 217.668C286.289 214.631 291.101 213.604 298.982 214.587C306.35 215.51 311.229 210.836 313.618 200.566C313.742 200.034 313.776 199.472 313.715 198.922C313.655 198.372 313.502 197.85 313.268 197.396C313.035 196.942 312.727 196.569 312.37 196.306C312.012 196.042 311.614 195.896 311.206 195.877L261.908 193.332C261.438 193.308 260.97 193.509 260.576 193.904C260.183 194.3 259.886 194.867 259.731 195.52L239.57 284.736C239.474 285.161 239.448 285.608 239.494 286.047C239.54 286.486 239.656 286.905 239.835 287.275C240.014 287.646 240.25 287.958 240.529 288.19C240.807 288.423 241.12 288.57 241.446 288.621C257.387 290.764 273.496 291.434 289.772 290.63C291.871 290.541 293.389 289.841 294.327 288.532C295.577 286.805 296.147 284.558 296.035 281.789C296.015 281.077 296.104 280.379 296.295 279.746C296.486 279.113 296.775 278.56 297.14 278.128C303.57 270.507 302.108 267.962 292.753 270.492Z" stroke="#CA8A8E" stroke-width="2"/>
<path d="M339.171 280.941L342.855 264.464C343.004 263.821 343.27 263.257 343.618 262.849C343.966 262.441 344.378 262.209 344.797 262.186C353.661 261.472 362.525 260.936 371.389 260.579C375.988 260.371 379.505 259.492 381.938 257.944C385.488 255.682 388.29 252.437 390.344 248.21C392.823 243.09 394.653 236.749 395.837 229.188C396.953 221.806 396.484 214.319 394.43 206.728C393.09 201.816 390.512 199.226 386.694 198.958L332.707 194.85C332.228 194.821 331.756 195.014 331.371 195.397C330.986 195.779 330.713 196.328 330.597 196.949C325.105 225.735 318.273 255.012 310.101 284.781C309.925 285.421 309.861 286.106 309.914 286.784C309.967 287.462 310.135 288.115 310.407 288.692C310.679 289.27 311.046 289.757 311.48 290.116C311.915 290.475 312.405 290.697 312.914 290.764C319.724 291.627 327.282 292.372 335.587 292.997C341.057 293.414 342.364 290.675 339.506 284.781C339.254 284.264 339.093 283.653 339.035 282.99C338.977 282.327 339.024 281.628 339.171 280.941Z" stroke="#CA8A8E" stroke-width="2"/>
<path d="M490.548 203.692C496.397 225.363 500.919 246.841 504.111 268.125C504.232 268.949 504.208 269.798 504.042 270.607C503.876 271.416 503.572 272.162 503.154 272.789C502.736 273.416 502.215 273.905 501.631 274.219C501.048 274.533 500.418 274.664 499.791 274.6C494.857 274.064 491.675 276.684 490.246 282.459C487.813 292.282 489.644 297.373 495.739 297.73C499.11 297.939 502.448 298.147 505.752 298.355C510.888 298.683 515.018 295.974 518.144 290.228C532.121 264.449 546.198 237.598 560.375 209.675C560.665 209.105 560.841 208.446 560.887 207.761C560.933 207.075 560.847 206.388 560.638 205.767C560.428 205.146 560.103 204.611 559.693 204.216C559.283 203.821 558.802 203.578 558.299 203.513L534.454 200.477C534.28 200.454 534.106 200.494 533.948 200.593C533.79 200.691 533.653 200.845 533.552 201.039C533.451 201.232 533.388 201.459 533.37 201.697C533.352 201.935 533.379 202.176 533.449 202.397C536.396 212.19 534.632 219.945 528.158 225.661C527.941 225.856 527.698 225.998 527.447 226.075C527.196 226.152 526.944 226.164 526.709 226.108C526.474 226.052 526.262 225.931 526.09 225.753C525.917 225.575 525.788 225.345 525.713 225.08L521.292 208.737C520.934 207.43 520.41 206.279 519.771 205.396C519.132 204.512 518.399 203.926 517.642 203.692C508.443 200.953 499.467 199.807 490.715 200.253" stroke="#CA8A8E" stroke-width="2"/>
<path d="M490.715 200.253L453.641 199.717C453.211 199.709 452.792 199.94 452.469 200.362C452.147 200.784 451.943 201.367 451.9 201.995C451.431 207.68 449.332 211.55 445.604 213.604C444.599 214.14 444.197 213.649 444.398 212.131C444.8 208.826 444.699 205.597 444.096 202.441C443.97 201.807 443.696 201.241 443.311 200.824C442.926 200.407 442.451 200.161 441.953 200.119L412.95 197.797C412.698 197.774 412.446 197.831 412.213 197.965C411.98 198.099 411.773 198.306 411.608 198.569C411.443 198.833 411.324 199.146 411.26 199.484C411.197 199.823 411.191 200.178 411.242 200.521C411.912 205.165 411.678 209.883 410.539 214.676C404.712 238.878 398.784 263.05 392.756 287.192C392.537 288.057 392.473 288.979 392.567 289.881C392.661 290.783 392.912 291.641 393.298 292.382C393.684 293.123 394.194 293.728 394.787 294.145C395.38 294.563 396.038 294.781 396.707 294.783L422.395 294.962C422.619 294.963 422.841 294.901 423.047 294.781C423.253 294.66 423.438 294.484 423.592 294.262C423.746 294.04 423.865 293.778 423.941 293.491C424.017 293.205 424.049 292.899 424.036 292.595C423.589 281.343 425.788 272.725 430.633 266.741C431.025 266.248 431.494 265.876 432.006 265.653C432.518 265.429 433.061 265.36 433.596 265.45C434.13 265.539 434.644 265.786 435.098 266.171C435.553 266.557 435.938 267.071 436.226 267.679C439.62 274.734 441.708 280.062 442.489 283.664C444.253 291.732 447.847 296.108 453.273 296.792C457.56 297.298 461.88 296.852 466.234 295.453C471.994 293.607 474.562 287.951 473.937 278.485C473.85 277.118 473.405 275.73 472.664 274.511C465.787 263.258 461.366 250.443 459.402 236.065C459.31 235.395 459.349 234.706 459.513 234.065C459.677 233.424 459.962 232.852 460.339 232.403C469.516 221.716 479.585 212.146 490.548 203.691" stroke="#CA8A8E" stroke-width="2"/>
<path d="M490.715 200.253L490.548 203.69" stroke="#C13E40" stroke-width="2"/>
<path d="M572.901 229.278L557.696 293.89C557.57 294.421 557.532 294.984 557.585 295.533C557.638 296.083 557.78 296.606 558.001 297.06C558.221 297.514 558.514 297.887 558.856 298.15C559.198 298.414 559.581 298.56 559.974 298.578L586.398 299.784C586.856 299.811 587.311 299.609 587.689 299.212C588.066 298.814 588.343 298.244 588.474 297.596L603.042 231.867C603.437 230.08 604.27 228.515 605.413 227.41C606.556 226.305 607.947 225.722 609.372 225.75C614.15 225.809 616.974 223.398 617.845 218.516C618.716 213.723 620.502 209.645 623.204 206.281C623.985 205.299 623.84 204.808 622.768 204.808C601.223 204.48 587.067 203.647 580.302 202.307C566.594 199.598 560.387 206.668 561.682 223.517C561.721 224.034 561.927 224.522 562.263 224.897C562.599 225.271 563.045 225.51 563.524 225.571L571.762 226.554C571.969 226.571 572.168 226.661 572.344 226.816C572.52 226.971 572.668 227.187 572.777 227.449C572.887 227.711 572.955 228.012 572.976 228.328C572.998 228.645 572.972 228.969 572.901 229.278Z" stroke="#C88D8E" stroke-width="2"/>
<path d="M280.83 429.947L273.128 411.818C272.879 411.218 272.763 410.552 272.8 409.922C272.836 409.292 273.022 408.735 273.329 408.335C275.673 405.328 278.453 403.557 281.668 403.021C284.347 402.575 284.581 401.309 282.371 399.226C270.806 388.301 259.81 377.078 249.383 365.557C239.336 354.484 224.89 346.208 206.046 340.731C199.236 338.736 190.16 334.643 178.818 328.451C174.688 326.189 165.802 321.485 152.16 314.341C120.835 297.879 92.3794 274.749 66.7927 244.951C64.8949 242.748 64.1805 243.298 64.6493 246.603C67.1723 264.494 72.4415 281.075 80.4568 296.346C96.2197 326.352 116.135 350.286 140.204 368.147C183.875 400.595 230.383 421.865 279.725 431.956C281.154 432.254 281.523 431.584 280.83 429.947Z" stroke="#7E87A0" stroke-width="2"/>
<path d="M379.661 434.992C377.562 433.236 377.718 431.956 380.13 431.152C404.265 423.442 426.704 410.776 447.446 393.153C450.326 390.712 453.708 387.229 457.593 382.704C460.853 378.924 464.191 375.292 467.607 371.809C471.335 368.028 475.432 362.744 479.898 355.957C483.738 350.123 488.069 344.987 492.892 340.552C495.08 338.528 494.879 337.143 492.289 336.399C483.961 333.958 475.801 332.291 467.808 331.398C461.757 330.714 455.439 331.874 448.852 334.881C437.443 340.091 426.045 345.3 414.658 350.51C407.156 353.933 395.625 358.502 380.063 364.218C367.917 368.683 355.581 373.952 343.056 380.025C342.41 380.343 341.698 380.321 341.063 379.964C340.429 379.608 339.92 378.943 339.64 378.105C336.023 367.329 331.836 358.77 327.081 352.43C317.168 339.212 306.696 326.858 295.667 315.368C292.027 311.587 288.835 309.206 286.088 308.223C282.315 306.824 278.531 306.69 274.735 307.822C268.64 309.637 264.61 310.456 262.645 310.277C257.376 309.742 252.163 308.551 247.005 306.705C246.763 306.621 246.511 306.594 246.268 306.624C246.024 306.655 245.793 306.742 245.591 306.882C245.388 307.021 245.219 307.208 245.093 307.432C244.967 307.655 244.888 307.91 244.862 308.179L242.986 327.067C242.928 327.646 243.035 328.283 243.296 328.906C243.556 329.529 243.959 330.114 244.46 330.594C249.327 335.268 253.781 340.567 257.822 346.491C266.619 359.291 276.923 369.368 288.734 376.721C294.829 380.501 301.014 386.515 307.288 394.76C308.296 396.079 308.951 397.804 309.151 399.668C309.35 401.533 309.084 403.433 308.393 405.075C306.339 409.987 303.035 413.068 298.48 414.318C296.069 414.973 295.935 416.104 298.078 417.712C304.419 422.475 310.983 426.419 317.77 429.545C327.572 434.099 334.181 437.672 337.597 440.261C344.697 445.65 351.395 451.797 357.691 458.703C366.332 468.199 372.583 473.781 376.446 475.448C384.082 478.693 391.974 478.469 400.123 474.778C400.431 474.637 400.709 474.398 400.93 474.08C401.152 473.762 401.311 473.376 401.394 472.956C401.477 472.536 401.481 472.096 401.405 471.673C401.33 471.251 401.177 470.861 400.961 470.536C396.786 464.374 393.213 457.706 390.244 450.532C387.453 443.804 383.925 438.624 379.661 434.992Z" stroke="#A5A9B6" stroke-width="2"/>
<path d="M356.432 119.864C356.582 119.232 356.638 118.567 356.595 117.907C356.553 117.247 356.413 116.604 356.184 116.016C355.956 115.427 355.642 114.905 355.262 114.478C354.882 114.051 354.442 113.729 353.969 113.528L353.713 113.42C353.24 113.22 352.741 113.146 352.246 113.202C351.751 113.259 351.269 113.445 350.827 113.75C350.386 114.055 349.994 114.473 349.674 114.98C349.354 115.487 349.112 116.073 348.962 116.704L343.21 140.88C343.059 141.511 343.004 142.176 343.046 142.837C343.089 143.497 343.228 144.139 343.457 144.728C343.686 145.316 343.999 145.838 344.38 146.265C344.76 146.692 345.199 147.015 345.673 147.215L345.928 147.323C346.402 147.524 346.901 147.598 347.396 147.541C347.891 147.484 348.373 147.298 348.814 146.993C349.255 146.688 349.647 146.27 349.967 145.764C350.287 145.257 350.53 144.671 350.68 144.039L356.432 119.864Z" stroke="#D06D6B" stroke-width="2"/>
<path d="M401.769 149.308C402.284 149.508 402.891 149.261 403.555 148.581C404.22 147.902 404.928 146.803 405.64 145.347C406.353 143.891 407.055 142.108 407.707 140.098C408.358 138.088 408.947 135.891 409.439 133.633C409.931 131.375 410.317 129.1 410.574 126.937C410.832 124.775 410.956 122.767 410.939 121.029C410.923 119.291 410.766 117.857 410.479 116.809C410.191 115.76 409.778 115.118 409.262 114.918C408.747 114.719 408.14 114.966 407.476 115.645C406.811 116.325 406.103 117.424 405.39 118.879C404.678 120.335 403.976 122.119 403.324 124.128C402.672 126.138 402.084 128.335 401.592 130.593C401.1 132.851 400.714 135.127 400.457 137.289C400.199 139.452 400.075 141.459 400.091 143.197C400.108 144.935 400.264 146.369 400.552 147.418C400.84 148.466 401.253 149.108 401.769 149.308Z" stroke="#D06D6B" stroke-width="2"/>
<path d="M467.439 118.271C464.559 117.348 462.047 117.988 459.904 120.191C459.15 120.964 458.6 122.272 458.363 123.852C456.577 135.224 455.64 142.026 455.55 144.259C455.238 151.403 456.957 153.249 460.708 149.796C461.42 149.131 462.029 147.874 462.416 146.268L468.411 120.816C468.471 120.549 468.494 120.269 468.478 119.994C468.462 119.719 468.406 119.454 468.315 119.216C468.225 118.978 468.1 118.771 467.949 118.609C467.799 118.446 467.625 118.331 467.439 118.271Z" stroke="#D06D6B" stroke-width="2"/>
<path d="M202.931 246.201C198.89 245.308 196.669 247.511 196.267 252.809C196.066 255.578 195.943 257.066 195.898 257.275C194.537 268.914 197.138 270.031 203.702 260.624C206.582 256.516 207.185 252.482 205.51 248.523C205.26 247.913 204.898 247.387 204.45 246.984C204.003 246.581 203.483 246.313 202.931 246.201Z" stroke="#D67C79" stroke-width="2"/>
<path d="M356.68 238.982C357.877 239.582 359.329 239.078 360.717 237.582C362.105 236.086 363.315 233.72 364.081 231.004C364.846 228.288 365.105 225.445 364.8 223.1C364.495 220.756 363.651 219.101 362.453 218.501C361.256 217.901 359.804 218.405 358.416 219.901C357.028 221.397 355.818 223.763 355.052 226.479C354.287 229.195 354.028 232.038 354.333 234.383C354.638 236.727 355.482 238.382 356.68 238.982Z" stroke="#D67C79" stroke-width="2"/>
<path d="M747.487 152.073C760.615 176.453 769.613 202.873 774.48 231.332C775.753 238.774 775.931 246.097 775.016 253.301C773.319 266.518 772.426 273.588 772.337 274.511C770.841 289.722 766.342 304.071 758.84 317.556C740.219 351.045 718.026 377.569 692.261 397.127C682.861 403.289 673.518 409.689 664.229 416.328C653.646 423.919 644.135 429.783 635.696 433.921C572.89 464.701 507.751 481.863 440.279 485.405L442.924 464.865C442.987 464.41 443.199 463.955 443.536 463.552C443.874 463.15 444.323 462.815 444.833 462.588L447.881 461.293C448.908 463.049 450.906 463.793 453.876 463.526C488.862 460.311 522.118 454.178 553.644 445.129C578.65 437.925 600.24 430.349 618.414 422.4C654.205 406.772 686.925 384.669 716.575 356.091C730.842 342.308 742.296 325.177 750.936 304.696C759.934 283.263 763.864 261.725 762.725 240.083C761.363 214.066 753.671 190.564 739.65 169.577C721.811 142.845 700.902 121.352 676.922 105.098C618.113 65.2681 553.811 39.9947 484.017 29.278C440.636 22.6099 402.68 19.4395 370.15 19.767C336.235 20.1242 302.566 23.6815 269.142 30.439C242.796 35.7973 220.849 41.1705 203.3 46.5586C153.421 61.8298 108.354 88.1601 68.0989 125.549C54.0329 138.618 41.273 157.58 29.8192 182.437C14.7485 215.093 12.4377 248.047 22.8867 281.298C32.1301 310.709 47.8036 335.997 69.9073 357.163C98.2626 384.252 128.973 405.254 162.04 420.168C213.481 443.387 266.34 457.036 320.617 461.114L322.024 482.905C258.794 477.16 197.919 459.298 139.4 429.322C114.372 416.521 90.7161 400.163 68.4338 380.248C46.7989 360.929 29.2164 336.444 15.6862 306.795C-1.90743 268.274 -3.69359 229.069 10.3278 189.179C18.946 164.71 31.9403 142.979 49.3107 123.986C70.6776 100.648 94.0093 81.5812 119.306 66.7863C157.686 44.4004 197.461 28.0278 238.632 17.6683C275.517 8.38057 312.658 3.02223 350.055 1.59335C372.204 0.759829 394.531 0.804493 417.036 1.72732C483.839 4.43625 549.234 19.4098 613.223 46.6479C652.519 63.348 688.22 87.2372 720.326 118.316C729.748 127.425 738.802 138.677 747.487 152.073Z" fill="#0A86C0"/>
<path d="M374.269 103.088C377.685 105.589 379.092 109.399 378.489 114.519C376.814 128.689 373.555 141.862 368.71 154.037C367.946 155.948 366.845 157.582 365.503 158.796C364.16 160.01 362.617 160.767 361.007 161.003C352.054 162.253 343.101 162.849 334.148 162.789C325.574 162.729 321.912 157.059 323.163 145.776C324.748 131.487 328.086 118.33 333.176 106.303C335.074 101.808 337.91 98.9208 341.683 97.6407C353.226 93.8006 364.088 95.6165 374.269 103.088ZM356.432 119.863C356.582 119.231 356.638 118.567 356.595 117.906C356.553 117.246 356.413 116.603 356.185 116.015C355.956 115.427 355.643 114.904 355.262 114.478C354.882 114.051 354.443 113.728 353.969 113.528L353.714 113.42C353.24 113.219 352.741 113.145 352.246 113.202C351.751 113.259 351.269 113.445 350.828 113.75C350.386 114.055 349.995 114.472 349.675 114.979C349.354 115.486 349.112 116.072 348.962 116.704L343.21 140.879C343.06 141.511 343.004 142.176 343.047 142.836C343.089 143.496 343.229 144.139 343.458 144.727C343.686 145.315 344 145.838 344.38 146.265C344.76 146.692 345.2 147.014 345.673 147.215L345.928 147.323C346.402 147.523 346.901 147.597 347.396 147.54C347.891 147.484 348.373 147.298 348.814 146.993C349.256 146.688 349.648 146.27 349.968 145.763C350.288 145.256 350.53 144.67 350.68 144.038L356.432 119.863Z" fill="#BE4341"/>
<path d="M429.129 103.892C433.282 106.72 434.778 110.783 433.617 116.082L425.545 153.055C424.25 158.979 420.913 162.417 415.532 163.369C404.547 165.304 393.506 164.828 382.41 161.941C380.902 161.539 379.565 160.388 378.67 158.722C377.774 157.056 377.387 154.998 377.587 152.965C379.172 137.069 382.588 121.887 387.835 107.42C388.489 105.607 389.427 103.997 390.587 102.697C391.747 101.396 393.103 100.434 394.567 99.8733C406.78 95.2294 418.3 96.569 429.129 103.892ZM401.771 149.307C402.286 149.507 402.894 149.26 403.558 148.581C404.222 147.901 404.931 146.802 405.643 145.346C406.355 143.891 407.058 142.107 407.709 140.097C408.361 138.087 408.95 135.891 409.442 133.632C409.934 131.374 410.32 129.099 410.577 126.937C410.834 124.774 410.959 122.766 410.942 121.029C410.926 119.291 410.769 117.857 410.481 116.808C410.194 115.76 409.78 115.117 409.265 114.918C408.75 114.718 408.143 114.965 407.478 115.645C406.814 116.324 406.105 117.423 405.393 118.879C404.681 120.334 403.979 122.118 403.327 124.128C402.675 126.138 402.086 128.334 401.594 130.593C401.102 132.851 400.717 135.126 400.459 137.288C400.202 139.451 400.078 141.459 400.094 143.196C400.111 144.934 400.267 146.368 400.555 147.417C400.843 148.465 401.256 149.108 401.771 149.307Z" fill="#BE4341"/>
<path d="M482.342 103.133C481.048 112.778 479.753 122.408 478.458 132.023C477.52 138.81 475.789 144.853 473.267 150.152C470.587 155.689 467.752 161.107 464.76 166.405C455.383 167.507 447.01 166.748 439.642 164.128C434.574 162.312 432.509 157.966 433.446 151.09C435.366 137.098 438.202 124.313 441.953 112.733C444.141 105.946 448.673 101.57 455.55 99.605C461.4 97.9379 470.331 99.1138 482.342 103.133ZM467.439 118.27C464.559 117.347 462.047 117.987 459.904 120.19C459.15 120.963 458.599 122.271 458.363 123.851C456.577 135.223 455.639 142.025 455.55 144.258C455.238 151.402 456.957 153.248 460.708 149.795C461.42 149.13 462.029 147.873 462.416 146.267L468.41 120.815C468.471 120.548 468.494 120.268 468.478 119.993C468.462 119.718 468.406 119.453 468.315 119.215C468.224 118.977 468.1 118.77 467.949 118.608C467.799 118.445 467.625 118.33 467.439 118.27Z" fill="#BE4341"/>
<path d="M482.344 103.133C487.211 105.336 489.165 110.486 488.205 118.583C486.731 130.937 485.302 140.761 483.918 148.054C481.484 160.854 475.099 166.972 464.761 166.406C467.753 161.107 470.589 155.689 473.268 150.153C475.791 144.854 477.521 138.811 478.459 132.024C479.754 122.408 481.049 112.778 482.344 103.133Z" fill="#BE4341"/>
<path d="M353.972 113.527L353.716 113.419C351.724 112.577 349.597 114.047 348.965 116.703L343.213 140.879C342.581 143.535 343.683 146.371 345.676 147.214L345.931 147.322C347.923 148.165 350.051 146.694 350.683 144.038L356.434 119.863C357.066 117.206 355.964 114.37 353.972 113.527Z" fill="#E29694"/>
<path d="M401.594 130.593C399.525 140.089 399.604 148.468 401.771 149.307C403.938 150.147 407.372 143.129 409.441 133.632C411.511 124.136 411.431 115.757 409.264 114.918C407.097 114.078 403.663 121.096 401.594 130.593Z" fill="#E29694"/>
<path d="M467.441 118.27C467.627 118.33 467.8 118.445 467.951 118.608C468.101 118.77 468.226 118.977 468.317 119.215C468.408 119.453 468.463 119.718 468.48 119.993C468.496 120.268 468.473 120.548 468.412 120.815L462.417 146.267C462.03 147.873 461.422 149.13 460.709 149.795C456.958 153.248 455.239 151.402 455.552 144.258C455.641 142.025 456.579 135.223 458.365 123.851C458.601 122.271 459.151 120.963 459.905 120.19C462.049 117.987 464.561 117.347 467.441 118.27Z" fill="#E29694"/>
<path d="M226.978 228.161C229.568 235.246 230.383 242.346 229.423 249.46C228.462 256.515 227.268 263.183 225.839 269.465C224.142 276.877 220.614 282.712 215.256 286.968C198.243 288.993 180.158 288.933 161.001 286.79C160.667 286.757 160.342 286.62 160.054 286.389C159.766 286.159 159.521 285.841 159.34 285.46C159.158 285.08 159.044 284.647 159.007 284.196C158.97 283.745 159.011 283.288 159.126 282.86C166.204 256.218 172.678 229.381 178.55 202.352C179.22 199.285 179.142 196.175 178.316 193.019C178.249 192.769 178.23 192.501 178.26 192.239C178.29 191.977 178.368 191.728 178.487 191.516C178.607 191.304 178.764 191.134 178.944 191.023C179.125 190.911 179.323 190.861 179.522 190.876L242.685 193.51C242.913 193.518 243.137 193.596 243.34 193.739C243.542 193.882 243.718 194.086 243.853 194.335C243.989 194.585 244.08 194.873 244.122 195.179C244.163 195.485 244.153 195.8 244.091 196.1C242.841 202.113 240.832 206.936 238.063 210.568C237.766 210.962 237.354 211.284 236.853 211.514C236.351 211.745 235.771 211.879 235.149 211.907L206.214 213.425C205.728 213.448 205.265 213.719 204.913 214.189C204.561 214.658 204.344 215.293 204.305 215.971C204.104 218.918 204.807 221.359 206.415 223.294C206.637 223.571 207.023 223.837 207.54 224.069C208.058 224.302 208.694 224.495 209.395 224.633L226.978 228.161ZM202.932 246.201C198.89 245.308 196.669 247.51 196.267 252.809C196.066 255.578 195.943 257.066 195.899 257.274C194.537 268.914 197.138 270.03 203.702 260.623C206.582 256.515 207.185 252.482 205.51 248.522C205.26 247.913 204.898 247.386 204.45 246.984C204.003 246.581 203.483 246.313 202.932 246.201Z" fill="#C13E40"/>
<path d="M292.753 270.491C302.108 267.961 303.571 270.506 297.141 278.127C296.775 278.559 296.487 279.112 296.296 279.745C296.104 280.378 296.016 281.076 296.036 281.788C296.147 284.557 295.578 286.804 294.328 288.531C293.39 289.841 291.872 290.54 289.773 290.629C273.496 291.433 257.388 290.763 241.446 288.62C241.12 288.569 240.807 288.422 240.529 288.19C240.251 287.957 240.014 287.645 239.835 287.274C239.656 286.904 239.54 286.485 239.494 286.046C239.449 285.607 239.475 285.16 239.571 284.735L259.732 195.519C259.887 194.867 260.183 194.299 260.577 193.903C260.97 193.508 261.438 193.307 261.909 193.331L311.207 195.876C311.614 195.895 312.012 196.041 312.37 196.305C312.728 196.568 313.035 196.941 313.269 197.395C313.502 197.849 313.655 198.371 313.716 198.921C313.776 199.471 313.743 200.034 313.618 200.565C311.229 210.835 306.351 215.509 298.983 214.586C291.101 213.604 286.29 214.631 284.548 217.667C282.204 221.745 282.617 225.466 285.787 228.83C287.819 230.944 291.034 232.209 295.433 232.626C295.994 232.666 296.529 232.853 296.994 233.171C297.459 233.488 297.842 233.929 298.112 234.456C300.278 238.624 299.641 241.884 296.203 244.235C295.109 244.98 292.988 245.59 289.84 246.066C284.973 246.81 280.73 249.207 277.113 253.255C274.233 256.5 273.173 259.715 273.932 262.9C274.758 266.413 277.571 268.884 282.371 270.313C285.81 271.384 289.27 271.444 292.753 270.491Z" fill="#C13E40"/>
<path d="M339.507 284.78C342.365 290.674 341.059 293.413 335.589 292.996C327.283 292.371 319.726 291.627 312.916 290.764C312.407 290.696 311.917 290.475 311.482 290.116C311.048 289.756 310.68 289.269 310.409 288.692C310.137 288.114 309.968 287.461 309.915 286.783C309.862 286.105 309.926 285.42 310.103 284.78C318.275 255.012 325.107 225.734 330.599 196.948C330.715 196.327 330.988 195.779 331.373 195.396C331.757 195.014 332.229 194.821 332.709 194.85L386.696 198.958C390.513 199.226 393.092 201.815 394.432 206.727C396.486 214.318 396.955 221.805 395.838 229.188C394.655 236.749 392.824 243.089 390.346 248.21C388.292 252.437 385.49 255.682 381.94 257.944C379.506 259.492 375.99 260.37 371.39 260.578C362.527 260.936 353.663 261.472 344.799 262.186C344.38 262.209 343.968 262.44 343.62 262.848C343.272 263.256 343.005 263.821 342.857 264.463L339.173 280.94C339.025 281.627 338.979 282.326 339.037 282.989C339.095 283.652 339.255 284.263 339.507 284.78ZM356.681 238.981C357.879 239.581 359.331 239.078 360.719 237.582C362.107 236.086 363.317 233.719 364.082 231.004C364.848 228.288 365.107 225.445 364.802 223.1C364.496 220.755 363.652 219.101 362.455 218.501C361.258 217.901 359.806 218.404 358.418 219.9C357.03 221.396 355.82 223.763 355.054 226.479C354.288 229.194 354.03 232.037 354.335 234.382C354.64 236.727 355.484 238.381 356.681 238.981Z" fill="#C13E40"/>
<path d="M490.718 200.252L490.551 203.691C479.588 212.145 469.519 221.715 460.342 232.402C459.965 232.851 459.68 233.423 459.516 234.064C459.352 234.705 459.313 235.394 459.405 236.064C461.369 250.442 465.79 263.257 472.667 274.51C473.408 275.73 473.853 277.117 473.939 278.484C474.565 287.95 471.997 293.606 466.237 295.452C461.883 296.851 457.563 297.298 453.276 296.792C447.85 296.107 444.256 291.731 442.492 283.664C441.71 280.062 439.623 274.733 436.229 267.678C435.941 267.071 435.556 266.556 435.101 266.17C434.647 265.785 434.133 265.539 433.599 265.449C433.064 265.359 432.521 265.429 432.009 265.652C431.497 265.875 431.028 266.247 430.636 266.74C425.791 272.724 423.592 281.342 424.039 292.594C424.052 292.899 424.02 293.204 423.944 293.49C423.867 293.777 423.749 294.039 423.595 294.261C423.441 294.483 423.256 294.659 423.05 294.78C422.844 294.9 422.622 294.962 422.398 294.961L396.71 294.782C396.041 294.78 395.383 294.562 394.79 294.144C394.197 293.727 393.687 293.123 393.301 292.381C392.915 291.64 392.664 290.783 392.57 289.88C392.476 288.978 392.54 288.056 392.759 287.191C398.787 263.049 404.715 238.877 410.542 214.675C411.681 209.882 411.915 205.164 411.245 200.52C411.194 200.177 411.2 199.822 411.263 199.484C411.327 199.145 411.446 198.832 411.611 198.568C411.776 198.305 411.983 198.098 412.216 197.964C412.449 197.83 412.701 197.773 412.953 197.796L441.956 200.118C442.454 200.16 442.929 200.407 443.314 200.823C443.699 201.24 443.973 201.806 444.099 202.44C444.702 205.596 444.803 208.826 444.401 212.13C444.2 213.648 444.602 214.139 445.607 213.604C449.335 211.549 451.434 207.68 451.903 201.994C451.946 201.366 452.149 200.783 452.472 200.361C452.795 199.939 453.214 199.709 453.644 199.717L490.718 200.252Z" fill="#C13E40"/>
<path d="M490.716 200.253C499.468 199.807 508.444 200.953 517.642 203.691C518.4 203.925 519.133 204.512 519.772 205.396C520.411 206.279 520.934 207.429 521.293 208.737L525.714 225.08C525.789 225.345 525.918 225.575 526.091 225.752C526.263 225.93 526.475 226.052 526.71 226.108C526.945 226.163 527.197 226.152 527.448 226.075C527.699 225.997 527.942 225.856 528.158 225.66C534.633 219.945 536.397 212.19 533.45 202.396C533.38 202.176 533.353 201.935 533.371 201.697C533.389 201.459 533.452 201.232 533.553 201.038C533.654 200.845 533.791 200.691 533.949 200.593C534.107 200.494 534.281 200.454 534.455 200.476L558.3 203.513C558.803 203.578 559.284 203.82 559.694 204.216C560.104 204.611 560.429 205.145 560.639 205.767C560.848 206.388 560.934 207.075 560.888 207.76C560.842 208.445 560.666 209.105 560.376 209.675C546.199 237.598 532.121 264.449 518.145 290.228C515.019 295.974 510.889 298.682 505.753 298.355C502.449 298.147 499.111 297.938 495.74 297.73C489.644 297.373 487.814 292.282 490.247 282.459C491.676 276.684 494.858 274.064 499.792 274.6C500.419 274.663 501.049 274.533 501.632 274.219C502.216 273.905 502.736 273.415 503.155 272.789C503.573 272.162 503.877 271.415 504.043 270.606C504.209 269.797 504.233 268.948 504.112 268.125C500.919 246.841 496.398 225.363 490.549 203.691L490.716 200.253Z" fill="#C13E40"/>
<path d="M571.764 226.553L563.525 225.571C563.046 225.51 562.6 225.271 562.264 224.896C561.928 224.522 561.723 224.034 561.683 223.517C560.388 206.668 566.595 199.598 580.304 202.307C587.069 203.647 601.224 204.48 622.77 204.808C623.841 204.808 623.987 205.299 623.205 206.281C620.504 209.645 618.717 213.723 617.847 218.516C616.976 223.398 614.151 225.809 609.374 225.75C607.948 225.722 606.558 226.305 605.415 227.41C604.272 228.514 603.439 230.08 603.044 231.867L588.475 297.596C588.345 298.243 588.068 298.813 587.69 299.211C587.312 299.609 586.857 299.811 586.399 299.784L559.975 298.578C559.582 298.56 559.2 298.414 558.858 298.15C558.515 297.887 558.223 297.513 558.002 297.059C557.782 296.605 557.639 296.083 557.587 295.533C557.534 294.983 557.572 294.421 557.698 293.89L572.902 229.277C572.973 228.969 572.999 228.644 572.978 228.328C572.956 228.011 572.888 227.711 572.779 227.449C572.669 227.187 572.521 226.97 572.345 226.815C572.17 226.66 571.971 226.571 571.764 226.553Z" fill="#BE4341"/>
<path d="M226.979 228.161C235.195 232.686 238.868 239.86 237.997 249.683C237.372 257.006 235.899 264.359 233.577 271.742C230.562 281.327 224.456 286.403 215.257 286.968C220.616 282.711 224.143 276.877 225.84 269.465C227.269 263.183 228.464 256.515 229.424 249.46C230.384 242.345 229.569 235.246 226.979 228.161Z" fill="#C13E40"/>
<path d="M280.831 429.946C281.523 431.583 281.155 432.253 279.726 431.955C230.383 421.864 183.876 400.594 140.205 368.146C116.136 350.285 96.2206 326.351 80.4578 296.345C72.4424 281.074 67.1732 264.493 64.6503 246.602C64.1814 243.297 64.8959 242.747 66.7936 244.95C92.3804 274.748 120.836 297.878 152.161 314.34C165.803 321.484 174.689 326.188 178.819 328.45C190.161 334.642 199.237 338.735 206.047 340.73C224.891 346.207 239.337 354.483 249.384 365.557C259.81 377.077 270.807 388.3 282.372 399.225C284.582 401.308 284.348 402.574 281.669 403.02C278.454 403.556 275.674 405.327 273.329 408.334C273.023 408.734 272.837 409.291 272.801 409.921C272.764 410.551 272.88 411.217 273.129 411.817L280.831 429.946Z" fill="#293765"/>
<path d="M447.882 461.293L444.835 462.588C444.325 462.815 443.875 463.149 443.538 463.552C443.2 463.955 442.988 464.41 442.926 464.865L440.28 485.405C437.846 492.014 435.189 492.817 432.309 487.816C424.919 474.867 417.428 460.906 409.837 445.932C409.723 445.701 409.648 445.439 409.618 445.166C409.588 444.892 409.604 444.612 409.665 444.348C409.726 444.083 409.83 443.84 409.97 443.635C410.11 443.43 410.282 443.269 410.473 443.164C425.879 434.888 440.503 425.6 454.346 415.3C459.503 411.49 465.777 405.313 473.168 396.769C479.107 389.923 485.392 383.642 492.023 377.926C492.798 377.266 493.42 376.054 493.764 374.532C494.68 370.514 497.292 368.177 501.601 367.522C522.834 364.277 550.999 356.716 586.098 344.838C632.381 329.15 675.841 304.651 716.476 271.34C716.676 271.175 716.897 271.052 717.121 270.979C717.345 270.906 717.566 270.887 717.767 270.921C717.968 270.956 718.143 271.044 718.279 271.178C718.415 271.313 718.509 271.49 718.552 271.697C718.664 272.352 718.418 273.126 717.816 274.019C715.851 276.996 714.422 280.285 713.529 283.887C712.189 289.246 711.162 292.699 710.448 294.247C703.794 308.833 695.556 321.693 685.732 332.827C665.771 355.421 643.857 373.907 619.99 388.285C568.816 419.155 515.209 437.121 459.169 442.181C454.525 442.598 451.376 443.908 449.724 446.111C447.201 449.534 446.587 454.595 447.882 461.293Z" fill="#293765"/>
<path d="M379.662 434.992C383.926 438.623 387.454 443.803 390.245 450.531C393.214 457.705 396.787 464.373 400.962 470.535C401.178 470.86 401.331 471.251 401.406 471.673C401.482 472.095 401.478 472.536 401.395 472.955C401.313 473.375 401.153 473.761 400.932 474.079C400.71 474.397 400.433 474.637 400.125 474.777C391.975 478.469 384.083 478.692 376.447 475.447C372.584 473.78 366.333 468.198 357.692 458.702C351.396 451.796 344.698 445.649 337.598 440.261C334.182 437.671 327.573 434.099 317.772 429.544C310.984 426.418 304.42 422.474 298.079 417.711C295.936 416.104 296.07 414.972 298.481 414.317C303.036 413.067 306.34 409.986 308.394 405.074C309.085 403.432 309.352 401.532 309.152 399.667C308.952 397.803 308.297 396.078 307.289 394.76C301.015 386.514 294.831 380.501 288.735 376.72C276.924 369.367 266.62 359.29 257.824 346.49C253.782 340.566 249.328 335.267 244.461 330.594C243.961 330.114 243.557 329.529 243.297 328.905C243.037 328.282 242.929 327.645 242.987 327.066L244.863 308.178C244.89 307.909 244.969 307.655 245.094 307.431C245.22 307.207 245.39 307.02 245.592 306.881C245.794 306.742 246.025 306.654 246.269 306.624C246.513 306.593 246.764 306.621 247.006 306.704C252.164 308.55 257.377 309.741 262.646 310.277C264.611 310.455 268.641 309.637 274.736 307.821C278.532 306.69 282.316 306.824 286.09 308.223C288.836 309.205 292.029 311.587 295.668 315.367C306.697 326.858 317.169 339.212 327.082 352.429C331.838 358.77 336.024 367.328 339.641 378.104C339.921 378.942 340.43 379.607 341.064 379.964C341.699 380.32 342.411 380.342 343.057 380.024C355.582 373.951 367.918 368.682 380.064 364.217C395.626 358.502 407.158 353.932 414.66 350.509C426.046 345.299 437.444 340.09 448.853 334.88C455.44 331.874 461.758 330.713 467.809 331.397C475.802 332.29 483.963 333.958 492.29 336.399C494.88 337.143 495.081 338.527 492.893 340.551C488.071 344.987 483.739 350.122 479.899 355.956C475.434 362.744 471.337 368.028 467.608 371.808C464.192 375.291 460.854 378.923 457.594 382.703C453.709 387.228 450.327 390.711 447.447 393.152C426.705 410.775 404.266 423.442 380.131 431.152C377.72 431.955 377.563 433.235 379.662 434.992Z" fill="#777B91"/>
<path d="M346.707 478.216C341.394 487.92 342.186 496.791 349.085 504.829C370.028 531.293 390.357 531.993 410.071 506.927C413.286 502.819 415.921 500.453 417.975 499.828C420.967 498.935 424.338 499.232 428.089 500.721C430.166 501.554 430.355 502.879 428.659 504.695C423.188 510.47 417.584 515.531 411.846 519.877C405.796 524.431 399.477 527.393 392.891 528.763C362.392 534.984 338.77 519.698 322.025 482.904L320.618 461.114C322.628 456.44 324.905 455.756 327.45 459.06C329.705 461.977 336.124 468.362 346.707 478.216Z" fill="#22335E"/>
<path d="M346.709 478.216C351.085 480.776 352.246 484.214 350.192 488.531C349.6 489.844 349.276 491.248 349.254 492.594L349.087 504.829C342.188 496.791 341.395 487.92 346.709 478.216Z" fill="#22335E"/>
</svg>
